FILE "Mortal Kombat Trilogy (USA) - [Quality Hack v1.1 by paul_met].bin" BINARY
  TRACK 01 MODE1/2352
    INDEX 01 00:00:00
  TRACK 02 AUDIO
    INDEX 00 05:17:39
    INDEX 01 05:19:39
  TRACK 03 AUDIO
    INDEX 00 07:27:61
    INDEX 01 07:29:61
  TRACK 04 AUDIO
    INDEX 00 09:33:70
    INDEX 01 09:35:70
  TRACK 05 AUDIO
    INDEX 00 11:17:65
    INDEX 01 11:19:65
  TRACK 06 AUDIO
    INDEX 00 13:35:01
    INDEX 01 13:37:01
  TRACK 07 AUDIO
    INDEX 00 16:15:17
    INDEX 01 16:17:17
  TRACK 08 AUDIO
    INDEX 00 18:10:67
    INDEX 01 18:12:67
  TRACK 09 AUDIO
    INDEX 00 20:17:03
    INDEX 01 20:19:03
  TRACK 10 AUDIO
    INDEX 00 22:13:11
    INDEX 01 22:15:11
  TRACK 11 AUDIO
    INDEX 00 24:12:20
    INDEX 01 24:14:20
  TRACK 12 AUDIO
    INDEX 00 26:10:36
    INDEX 01 26:12:36
  TRACK 13 AUDIO
    INDEX 00 28:06:39
    INDEX 01 28:08:39
  TRACK 14 AUDIO
    INDEX 00 30:10:43
    INDEX 01 30:12:43
  TRACK 15 AUDIO
    INDEX 00 32:20:19
    INDEX 01 32:22:19
  TRACK 16 AUDIO
    INDEX 00 34:10:19
    INDEX 01 34:12:19
  TRACK 17 AUDIO
    INDEX 00 36:18:60
    INDEX 01 36:20:60
  TRACK 18 AUDIO
    INDEX 00 38:11:74
    INDEX 01 38:13:74
  TRACK 19 AUDIO
    INDEX 00 40:09:63
    INDEX 01 40:11:63
  TRACK 20 AUDIO
    INDEX 00 40:37:21
    INDEX 01 40:39:21
  TRACK 21 AUDIO
    INDEX 00 40:45:57
    INDEX 01 40:47:57
  TRACK 22 AUDIO
    INDEX 00 42:09:39
    INDEX 01 42:11:39
  TRACK 23 AUDIO
    INDEX 00 43:39:66
    INDEX 01 43:41:66
  TRACK 24 AUDIO
    INDEX 00 43:46:23
    INDEX 01 43:48:23
  TRACK 25 AUDIO
    INDEX 00 44:53:54
    INDEX 01 44:55:54
  TRACK 26 AUDIO
    INDEX 00 46:57:27
    INDEX 01 46:59:27
  TRACK 27 AUDIO
    INDEX 00 48:14:52
    INDEX 01 48:16:52
  TRACK 28 AUDIO
    INDEX 00 48:30:06
    INDEX 01 48:32:06
  TRACK 29 AUDIO
    INDEX 00 48:36:06
    INDEX 01 48:38:06
